#N canvas -8 -8 1366 685 10;
#X declare -lib mrpeach;
#X obj 241 121 hidin;
#X msg 295 28 start;
#X obj 254 176 print;
#X obj 202 29 bng 15 250 50 0 empty empty empty 17 7 0 10 -262144 -1
-1;
#X floatatom 398 372 5 0 0 0 - - -;
#X floatatom 430 258 3 0 0 0 - - -;
#X floatatom 457 258 3 0 0 0 - - -;
#X floatatom 485 259 3 0 0 0 - - -;
#X floatatom 806 52 5 0 0 0 - - -;
#X text 492 237 BOTO COLOR;
#X floatatom 35 285 3 0 0 0 - - -;
#X floatatom 95 575 3 0 0 0 - - -;
#X floatatom 129 574 3 0 0 0 - - -;
#X msg 296 58 stop;
#X floatatom 36 384 5 0 0 0 - - -;
#X floatatom 392 61 5 0 0 0 - - -;
#X obj 858 73 bng 15 250 50 0 empty empty empty 17 7 0 10 -262144 -1
-1;
#X obj 858 97 openpanel;
#X obj 855 161 soundfiler;
#X obj 860 436 dac~;
#X obj 864 405 *~;
#X obj 903 406 hsl 128 15 0 1 0 0 empty empty empty -2 -8 0 10 -262144
-1 -1 6800 1;
#X msg 135 500 stop;
#N canvas 0 0 450 300 (subpatch) 0;
#X array verde 335232 float 2;
#X coords 0 1 335232 -1 50 44 1 0 0;
#X restore 715 593 graph;
#N canvas 0 0 450 300 (subpatch) 0;
#X array rojo 48697 float 2;
#X coords 0 1 48697 -1 50 44 1 0 0;
#X restore 786 595 graph;
#X floatatom 854 189 15 0 0 0 - - -;
#X obj 866 217 expr 44100 / $f1;
#X floatatom 867 248 15 0 0 0 - - -;
#X obj 867 308 phasor~;
#X obj 868 280 *~ 1;
#X obj 867 340 *~;
#X obj 812 190 bng 15 250 50 0 empty empty empty 17 7 0 10 -262144
-1 -1;
#X obj 415 134 b;
#X obj 84 39 pddp/dsp;
#X text 766 30 canciones boton 1;
#N canvas 0 0 1362 685 songs 0;
#X floatatom 115 138 5 0 0 0 - - -;
#X obj 113 76 select 1;
#X obj 109 29 inlet;
#X obj 56 282 outlet;
#X obj 107 312 outlet;
#X obj 150 349 outlet;
#X obj 202 353 outlet;
#X obj 40 64 inlet;
#X msg 136 231 read -resize dog3.wav verde;
#X msg 157 261 read -resize mtls1.wav verde;
#X msg 114 200 read -resize m10.wav verde;
#X obj 244 372 outlet;
#X obj 296 382 outlet;
#X obj 117 173 select 0 1 2 3 4 5;
#X msg 252 318 read -resize ff1.wav verde;
#X msg 288 346 read -resize sp3.wav verde;
#X msg 193 289 read -resize sp2.wav verde;
#X obj 113 107 counter 5;
#X connect 0 0 13 0;
#X connect 1 0 17 0;
#X connect 2 0 1 0;
#X connect 7 0 0 0;
#X connect 8 0 4 0;
#X connect 9 0 5 0;
#X connect 10 0 3 0;
#X connect 13 0 10 0;
#X connect 13 1 8 0;
#X connect 13 2 9 0;
#X connect 13 3 16 0;
#X connect 13 4 14 0;
#X connect 13 5 15 0;
#X connect 14 0 11 0;
#X connect 15 0 12 0;
#X connect 16 0 6 0;
#X connect 17 0 0 0;
#X restore 750 88 pd songs green;
#X obj 402 326 select 0 1;
#X obj 840 355 bng 15 250 50 0 empty empty empty 17 7 0 10 -262144
-1 -1;
#X floatatom 382 258 3 0 0 0 - - -;
#X floatatom 927 309 5 0 0 0 - - -;
#X obj 409 220 route 23 24 22 25 26;
#X msg 230 28 open 1;
#X obj 394 88 / 255;
#X obj 370 151 +;
#X obj 36 253 route 20 21;
#X floatatom 66 286 3 0 0 0 - - -;
#X obj 97 537 route 30 31;
#X obj 38 350 route 2;
#X obj 36 443 route 14 15;
#X floatatom 38 481 3 0 0 0 - - -;
#X floatatom 70 480 3 0 0 0 - - -;
#X msg 857 128 read -resize \$1 verde;
#X obj 867 372 tabread4~ verde;
#X text 396 4 palanca;
#X text -15 445 pluma;
#X text -57 249 sensor de mov;
#X text -50 350 touch;
#X text 3 537 power/start;
#X floatatom 1110 38 5 0 0 0 - - -;
#X obj 1154 56 bng 15 250 50 0 empty empty empty 17 7 0 10 -262144
-1 -1;
#X obj 1154 80 openpanel;
#X obj 1151 144 soundfiler;
#X obj 1146 442 dac~;
#X obj 1149 407 *~;
#X obj 1171 384 hsl 128 15 0 1 0 0 empty empty empty -2 -8 0 10 -262144
-1 -1 7300 1;
#X floatatom 1152 169 15 0 0 0 - - -;
#X obj 1161 201 expr 44100 / $f1;
#X floatatom 1147 235 15 0 0 0 - - -;
#X obj 1149 294 phasor~;
#X obj 1149 266 *~ 1;
#X obj 1149 323 *~;
#X obj 1121 165 bng 15 250 50 0 empty empty empty 17 7 0 10 -262144
-1 -1;
#X obj 1120 340 bng 15 250 50 0 empty empty empty 17 7 0 10 -262144
-1 -1;
#X floatatom 1215 297 5 0 0 0 - - -;
#X text 1062 13 canciones boton 2;
#X msg 1153 111 read -resize \$1 rojo;
#X obj 1148 357 tabread4~ rojo;
#N canvas 475 188 593 415 songs 0;
#X floatatom 115 138 5 0 0 0 - - -;
#X obj 109 29 inlet;
#X obj 56 282 outlet;
#X obj 107 312 outlet;
#X obj 150 349 outlet;
#X obj 202 353 outlet;
#X obj 40 64 inlet;
#X msg 193 289 read -resize mets2.wav rojo;
#X obj 113 76 select 1;
#X msg 114 200 read -resize m1.wav rojo;
#X msg 136 231 read -resize ff1.wav rojo;
#X msg 157 261 read -resize bub4.wav rojo;
#X obj 242 374 outlet;
#X obj 287 379 outlet;
#X msg 246 316 read -resize bub4.wav rojo;
#X obj 117 173 select 0 1 2 3 4 5;
#X msg 282 344 read -resize m10.wav rojo;
#X obj 113 107 counter 5;
#X connect 0 0 15 0;
#X connect 1 0 8 0;
#X connect 6 0 0 0;
#X connect 7 0 5 0;
#X connect 8 0 17 0;
#X connect 9 0 2 0;
#X connect 10 0 3 0;
#X connect 11 0 4 0;
#X connect 14 0 12 0;
#X connect 15 0 9 0;
#X connect 15 1 10 0;
#X connect 15 2 11 0;
#X connect 15 3 7 0;
#X connect 15 4 14 0;
#X connect 15 5 16 0;
#X connect 16 0 13 0;
#X connect 17 0 0 0;
#X restore 1067 75 pd songs red;
#X floatatom 1370 21 5 0 0 0 - - -;
#X obj 1435 33 bng 15 250 50 0 empty empty empty 17 7 0 10 -262144
-1 -1;
#X obj 1435 57 openpanel;
#X obj 1432 121 soundfiler;
#X obj 1429 489 dac~;
#X obj 1429 439 *~;
#X obj 1461 411 hsl 128 15 0 1 0 0 empty empty empty -2 -8 0 10 -262144
-1 -1 8100 1;
#X floatatom 1435 165 15 0 0 0 - - -;
#X obj 1447 209 expr 44100 / $f1;
#X floatatom 1429 249 15 0 0 0 - - -;
#X obj 1429 310 phasor~;
#X obj 1429 278 *~ 1;
#X obj 1428 345 *~;
#X obj 1389 150 bng 15 250 50 0 empty empty empty 17 7 0 10 -262144
-1 -1;
#X obj 1373 343 bng 15 250 50 0 empty empty empty 17 7 0 10 -262144
-1 -1;
#X floatatom 1506 312 5 0 0 0 - - -;
#X msg 1434 88 read -resize \$1 amarillo;
#X obj 1427 376 tabread4~ amarillo;
#N canvas 590 137 593 415 songs 0;
#X floatatom 115 138 5 0 0 0 - - -;
#X obj 113 76 select 1;
#X obj 109 29 inlet;
#X obj 56 282 outlet;
#X obj 107 312 outlet;
#X obj 150 349 outlet;
#X obj 202 353 outlet;
#X obj 40 64 inlet;
#X msg 193 289 read -resize bub4.wav amarillo;
#X msg 136 231 read -resize cup2.wav amarillo;
#X msg 114 200 read -resize tet.wav amarillo;
#X msg 157 261 read -resize ang1.wav amarillo;
#X obj 250 358 outlet;
#X obj 306 379 outlet;
#X msg 257 320 read -resize ang1.wav amarillo;
#X obj 117 173 select 0 1 2 3 4 5;
#X msg 293 348 read -resize m7.wav amarillo;
#X obj 113 107 counter 5;
#X connect 0 0 15 0;
#X connect 1 0 17 0;
#X connect 2 0 1 0;
#X connect 7 0 0 0;
#X connect 8 0 6 0;
#X connect 9 0 4 0;
#X connect 10 0 3 0;
#X connect 11 0 5 0;
#X connect 14 0 12 0;
#X connect 15 0 10 0;
#X connect 15 1 9 0;
#X connect 15 2 11 0;
#X connect 15 3 8 0;
#X connect 15 4 14 0;
#X connect 15 5 16 0;
#X connect 16 0 13 0;
#X connect 17 0 0 0;
#X restore 1326 58 pd songs yellow;
#X text 1367 -11 canciones boton 3;
#X floatatom 1618 12 5 0 0 0 - - -;
#X obj 1683 24 bng 15 250 50 0 empty empty empty 17 7 0 10 -262144
-1 -1;
#X obj 1683 48 openpanel;
#X obj 1680 112 soundfiler;
#X obj 1677 480 dac~;
#X obj 1677 430 *~;
#X obj 1709 402 hsl 128 15 0 1 0 0 empty empty empty -2 -8 0 10 -262144
-1 -1 7700 1;
#X floatatom 1683 156 15 0 0 0 - - -;
#X obj 1695 200 expr 44100 / $f1;
#X floatatom 1677 240 15 0 0 0 - - -;
#X obj 1677 301 phasor~;
#X obj 1677 269 *~ 1;
#X obj 1676 336 *~;
#X obj 1637 141 bng 15 250 50 0 empty empty empty 17 7 0 10 -262144
-1 -1;
#X obj 1621 334 bng 15 250 50 0 empty empty empty 17 7 0 10 -262144
-1 -1;
#X floatatom 1754 303 5 0 0 0 - - -;
#X msg 1682 79 read -resize \$1 azul;
#X obj 1675 367 tabread4~ azul;
#N canvas 557 224 593 415 songs 0;
#X floatatom 115 138 5 0 0 0 - - -;
#X obj 113 76 select 1;
#X obj 109 29 inlet;
#X obj 56 282 outlet;
#X obj 107 312 outlet;
#X obj 150 349 outlet;
#X obj 202 353 outlet;
#X obj 40 64 inlet;
#X msg 193 289 read -resize m1.wav azul;
#X msg 114 200 read -resize m7.wav azul;
#X msg 136 231 read -resize m15.wav azul;
#X msg 157 261 read -resize bub1.wav azul;
#X obj 117 173 select 0 1 2 3 4 5;
#X obj 364 340 outlet;
#X obj 416 344 outlet;
#X msg 371 252 read -resize sonic1.wav azul;
#X msg 407 280 read -resize kf1.wav azul;
#X obj 113 107 counter 5;
#X connect 0 0 12 0;
#X connect 1 0 17 0;
#X connect 2 0 1 0;
#X connect 7 0 0 0;
#X connect 8 0 6 0;
#X connect 9 0 3 0;
#X connect 10 0 4 0;
#X connect 11 0 5 0;
#X connect 12 0 9 0;
#X connect 12 1 10 0;
#X connect 12 2 11 0;
#X connect 12 3 8 0;
#X connect 12 4 15 0;
#X connect 12 5 16 0;
#X connect 15 0 13 0;
#X connect 16 0 14 0;
#X connect 17 0 0 0;
#X restore 1596 52 pd songs blue;
#X text 1615 -20 canciones boton 4;
#N canvas 0 0 450 300 (subpatch) 0;
#X array amarillo 209836 float 2;
#X coords 0 1 209836 -1 50 44 1 0 0;
#X restore 856 595 graph;
#N canvas 0 0 450 300 (subpatch) 0;
#X array azul 380160 float 2;
#X coords 0 1 380160 -1 50 44 1 0 0;
#X restore 924 594 graph;
#X floatatom 440 416 5 0 0 0 - - -;
#X msg 1046 212 stop;
#X obj 444 370 select 0 1;
#X floatatom 490 53 5 0 0 0 - - -;
#X obj 513 126 b;
#X obj 488 22 route 3;
#X obj 492 80 / 255;
#X obj 468 143 +;
#X text 487 1 palanca;
#X floatatom 483 496 5 0 0 0 - - -;
#X obj 487 450 select 0 1;
#X floatatom 575 55 5 0 0 0 - - -;
#X obj 598 128 b;
#X obj 573 24 route 3;
#X obj 577 82 / 255;
#X text 572 3 palanca;
#X floatatom 544 565 5 0 0 0 - - -;
#X obj 548 519 select 0 1;
#X floatatom 663 53 5 0 0 0 - - -;
#X obj 686 126 b;
#X obj 661 22 route 3;
#X obj 665 80 / 255;
#X obj 641 143 +;
#X text 660 1 palanca;
#N canvas 0 0 1362 685 video 0;
#X obj -1073 22 import mrpeach;
#X obj -1002 538 udpsend;
#X msg -987 430 disconnect;
#X obj -678 572 packOSC;
#X floatatom -822 398 5 0 0 0 - - -;
#X floatatom -689 389 5 0 0 0 - - -;
#X floatatom -538 381 5 0 0 0 - - -;
#X obj -850 101 osc~ 1;
#X obj -767 118 tgl 15 0 empty empty empty 17 7 0 10 -262144 -1 -1
0 1;
#X floatatom -851 69 5 0 0 0 - - -;
#X obj -866 218 snapshot~;
#X floatatom -865 247 5 0 0 0 - - -;
#X obj -766 142 metro 40;
#X floatatom -675 61 5 0 0 0 - - -;
#X obj -673 95 osc~ 1;
#X obj -676 211 snapshot~;
#X floatatom -672 311 5 0 0 0 - - -;
#X floatatom -335 375 5 0 0 0 - - -;
#X obj -614 95 tgl 15 0 empty empty empty 17 7 0 10 -262144 -1 -1 0
1;
#X floatatom -680 248 5 0 0 0 - - -;
#X obj -681 279 i;
#X obj -614 122 metro 30;
#X floatatom -517 60 5 0 0 0 - - -;
#X obj -515 94 osc~ 1;
#X obj -518 210 snapshot~;
#X floatatom -514 310 5 0 0 0 - - -;
#X obj -436 93 tgl 15 0 empty empty empty 17 7 0 10 -262144 -1 -1 0
1;
#X floatatom -522 247 5 0 0 0 - - -;
#X obj -523 278 i;
#X obj -435 117 metro 30;
#X msg -1005 396 connect localhost 12000;
#X msg -333 406 send /v \$1;
#X obj -867 177 +~ 275;
#X floatatom -864 318 5 0 0 0 - - -;
#X obj -873 286 i;
#X floatatom -337 66 5 0 0 0 - - -;
#X obj -335 100 osc~ 1;
#X obj -338 216 snapshot~;
#X floatatom -334 316 5 0 0 0 - - -;
#X obj -256 99 tgl 15 0 empty empty empty 17 7 0 10 -262144 -1 -1 0
1;
#X floatatom -342 253 5 0 0 0 - - -;
#X obj -343 284 i;
#X obj -255 123 metro 30;
#X obj -335 138 *~ 80;
#X obj -333 175 +~ 180;
#X obj -867 145 *~ 260;
#X obj -743 40 inlet;
#X obj -236 39 inlet;
#X obj -588 39 inlet;
#X obj -413 37 inlet;
#X floatatom -452 386 5 0 0 0 - - -;
#X msg -451 416 send /ka \$1;
#X floatatom -778 368 5 0 0 0 - - -;
#X floatatom -626 359 5 0 0 0 - - -;
#X msg -821 428 send /t \$1;
#X msg -687 420 send /x \$1;
#X msg -538 422 send /y \$1;
#X msg -777 398 send /bu \$1;
#X msg -625 389 send /pa \$1;
#X obj -673 133 *~ 230;
#X obj -671 170 +~ 240;
#X obj -515 132 *~ 180;
#X obj -513 169 +~ 130;
#X msg -1037 345 connect id 12000;
#X obj -862 38 inlet;
#X obj -678 18 inlet;
#X obj -503 10 inlet;
#X connect 2 0 1 0;
#X connect 3 0 1 0;
#X connect 4 0 54 0;
#X connect 5 0 55 0;
#X connect 6 0 56 0;
#X connect 7 0 45 0;
#X connect 8 0 12 0;
#X connect 9 0 7 0;
#X connect 10 0 11 0;
#X connect 11 0 34 0;
#X connect 12 0 10 0;
#X connect 13 0 14 0;
#X connect 14 0 59 0;
#X connect 15 0 19 0;
#X connect 16 0 5 0;
#X connect 16 0 53 0;
#X connect 17 0 31 0;
#X connect 18 0 21 0;
#X connect 19 0 20 0;
#X connect 20 0 16 0;
#X connect 21 0 15 0;
#X connect 22 0 23 0;
#X connect 23 0 61 0;
#X connect 24 0 27 0;
#X connect 25 0 50 0;
#X connect 25 0 6 0;
#X connect 26 0 29 0;
#X connect 27 0 28 0;
#X connect 28 0 25 0;
#X connect 29 0 24 0;
#X connect 30 0 1 0;
#X connect 31 0 3 0;
#X connect 32 0 10 0;
#X connect 33 0 4 0;
#X connect 33 0 52 0;
#X connect 34 0 33 0;
#X connect 35 0 36 0;
#X connect 36 0 43 0;
#X connect 37 0 40 0;
#X connect 38 0 17 0;
#X connect 39 0 42 0;
#X connect 40 0 41 0;
#X connect 41 0 38 0;
#X connect 42 0 37 0;
#X connect 43 0 44 0;
#X connect 44 0 37 0;
#X connect 45 0 32 0;
#X connect 46 0 8 0;
#X connect 47 0 39 0;
#X connect 48 0 18 0;
#X connect 49 0 26 0;
#X connect 50 0 51 0;
#X connect 51 0 3 0;
#X connect 52 0 57 0;
#X connect 53 0 58 0;
#X connect 54 0 3 0;
#X connect 55 0 3 0;
#X connect 56 0 3 0;
#X connect 57 0 3 0;
#X connect 58 0 3 0;
#X connect 59 0 60 0;
#X connect 60 0 15 0;
#X connect 61 0 62 0;
#X connect 62 0 24 0;
#X connect 64 0 9 0;
#X connect 65 0 13 0;
#X connect 66 0 22 0;
#X restore 289 317 pd video;
#X obj 553 145 -;
#N canvas 0 22 450 278 (subpatch) 0;
#X array finalll 315288 float 2;
#X coords 0 1 315288 -1 50 44 1 0 0;
#X restore 455 619 graph;
#X obj 264 442 bng 15 250 50 0 empty empty empty 17 7 0 10 -262144
-1 -1;
#X obj 264 466 openpanel;
#X obj 261 530 soundfiler;
#X obj 253 663 dac~;
#X obj 259 636 *~;
#X obj 296 642 hsl 128 15 0 1 0 0 empty empty empty -2 -8 0 10 -262144
-1 -1 5500 1;
#X obj 217 568 bng 15 250 50 0 empty empty empty 17 7 0 10 -262144
-1 -1;
#X msg 271 584 stop;
#X floatatom 265 563 20 0 0 0 - - -;
#X obj 164 605 key;
#X obj 162 631 select 97;
#X msg 263 498 read -resize \$1 finalll;
#X obj 260 610 tabplay~ finalll;
#X text 174 660 115;
#X obj 390 30 route 3;
#X connect 0 0 2 0;
#X connect 0 0 40 0;
#X connect 0 0 44 0;
#X connect 0 0 46 0;
#X connect 0 0 47 0;
#X connect 0 0 48 0;
#X connect 0 0 125 0;
#X connect 0 0 133 0;
#X connect 0 0 140 0;
#X connect 0 0 161 0;
#X connect 0 1 2 0;
#X connect 1 0 0 0;
#X connect 3 0 0 0;
#X connect 4 0 39 0;
#X connect 4 0 51 0;
#X connect 5 0 127 0;
#X connect 6 0 145 0;
#X connect 7 0 142 0;
#X connect 8 0 35 1;
#X connect 13 0 0 0;
#X connect 14 0 42 0;
#X connect 14 0 126 0;
#X connect 14 0 134 0;
#X connect 14 0 141 0;
#X connect 14 0 144 0;
#X connect 14 0 144 2;
#X connect 14 0 144 4;
#X connect 15 0 42 0;
#X connect 16 0 17 0;
#X connect 17 0 51 0;
#X connect 18 0 25 0;
#X connect 20 0 19 0;
#X connect 20 0 19 1;
#X connect 21 0 20 1;
#X connect 25 0 26 0;
#X connect 25 0 30 1;
#X connect 26 0 27 0;
#X connect 27 0 29 0;
#X connect 28 0 30 0;
#X connect 29 0 28 0;
#X connect 30 0 52 0;
#X connect 31 0 27 0;
#X connect 31 0 25 0;
#X connect 32 0 43 0;
#X connect 35 0 18 0;
#X connect 35 1 18 0;
#X connect 35 2 18 0;
#X connect 35 3 18 0;
#X connect 35 4 18 0;
#X connect 35 5 18 0;
#X connect 36 0 4 0;
#X connect 36 1 35 0;
#X connect 37 0 52 0;
#X connect 38 0 43 0;
#X connect 39 0 28 1;
#X connect 39 0 15 0;
#X connect 40 0 36 0;
#X connect 40 0 38 0;
#X connect 40 0 144 1;
#X connect 40 1 5 0;
#X connect 40 1 122 0;
#X connect 40 1 144 3;
#X connect 40 2 6 0;
#X connect 40 2 130 0;
#X connect 40 2 144 5;
#X connect 40 3 7 0;
#X connect 40 3 137 0;
#X connect 40 3 144 5;
#X connect 40 3 144 1;
#X connect 40 4 8 0;
#X connect 40 4 58 0;
#X connect 40 4 78 0;
#X connect 40 4 98 0;
#X connect 41 0 0 0;
#X connect 42 0 32 0;
#X connect 42 0 43 1;
#X connect 43 0 29 1;
#X connect 44 0 10 0;
#X connect 44 1 45 0;
#X connect 46 0 11 0;
#X connect 46 1 12 0;
#X connect 46 1 22 0;
#X connect 46 1 121 0;
#X connect 47 0 14 0;
#X connect 48 0 49 0;
#X connect 48 1 50 0;
#X connect 51 0 18 0;
#X connect 52 0 20 0;
#X connect 58 0 77 1;
#X connect 59 0 60 0;
#X connect 60 0 75 0;
#X connect 61 0 65 0;
#X connect 63 0 62 0;
#X connect 63 0 62 1;
#X connect 64 0 63 1;
#X connect 65 0 66 0;
#X connect 65 0 70 1;
#X connect 66 0 67 0;
#X connect 67 0 69 0;
#X connect 68 0 70 0;
#X connect 69 0 68 0;
#X connect 70 0 76 0;
#X connect 71 0 67 0;
#X connect 71 0 65 0;
#X connect 72 0 76 0;
#X connect 73 0 68 1;
#X connect 73 0 123 0;
#X connect 75 0 61 0;
#X connect 76 0 63 0;
#X connect 77 0 61 0;
#X connect 77 1 61 0;
#X connect 77 2 61 0;
#X connect 77 3 61 0;
#X connect 77 4 61 0;
#X connect 77 5 61 0;
#X connect 78 0 96 1;
#X connect 79 0 80 0;
#X connect 80 0 94 0;
#X connect 81 0 85 0;
#X connect 83 0 82 0;
#X connect 83 0 82 1;
#X connect 84 0 83 1;
#X connect 85 0 86 0;
#X connect 85 0 90 1;
#X connect 86 0 87 0;
#X connect 87 0 89 0;
#X connect 88 0 90 0;
#X connect 89 0 88 0;
#X connect 90 0 95 0;
#X connect 91 0 87 0;
#X connect 91 0 85 0;
#X connect 92 0 95 0;
#X connect 93 0 88 1;
#X connect 93 0 131 0;
#X connect 94 0 81 0;
#X connect 95 0 83 0;
#X connect 96 0 81 0;
#X connect 96 1 81 0;
#X connect 96 2 81 0;
#X connect 96 3 81 0;
#X connect 96 4 81 0;
#X connect 96 5 81 0;
#X connect 98 0 116 1;
#X connect 99 0 100 0;
#X connect 100 0 114 0;
#X connect 101 0 105 0;
#X connect 103 0 102 0;
#X connect 103 0 102 1;
#X connect 104 0 103 1;
#X connect 105 0 106 0;
#X connect 105 0 110 1;
#X connect 106 0 107 0;
#X connect 107 0 109 0;
#X connect 108 0 110 0;
#X connect 109 0 108 0;
#X connect 110 0 115 0;
#X connect 111 0 107 0;
#X connect 111 0 105 0;
#X connect 112 0 115 0;
#X connect 113 0 108 1;
#X connect 113 0 138 0;
#X connect 114 0 101 0;
#X connect 115 0 103 0;
#X connect 116 0 101 0;
#X connect 116 1 101 0;
#X connect 116 2 101 0;
#X connect 116 3 101 0;
#X connect 116 4 101 0;
#X connect 116 5 101 0;
#X connect 120 0 75 0;
#X connect 120 0 73 0;
#X connect 121 0 60 0;
#X connect 121 0 75 0;
#X connect 121 0 17 0;
#X connect 121 0 51 0;
#X connect 121 0 94 0;
#X connect 121 0 80 0;
#X connect 121 0 100 0;
#X connect 121 0 114 0;
#X connect 122 0 120 0;
#X connect 122 1 77 0;
#X connect 123 0 126 0;
#X connect 124 0 127 0;
#X connect 125 0 123 0;
#X connect 125 0 144 2;
#X connect 126 0 124 0;
#X connect 126 0 127 1;
#X connect 127 0 69 1;
#X connect 129 0 93 0;
#X connect 129 0 94 0;
#X connect 130 0 129 0;
#X connect 130 1 96 0;
#X connect 131 0 134 0;
#X connect 132 0 145 0;
#X connect 133 0 131 0;
#X connect 133 0 144 4;
#X connect 134 0 132 0;
#X connect 134 0 145 1;
#X connect 136 0 113 0;
#X connect 136 0 114 0;
#X connect 137 0 136 0;
#X connect 137 1 116 0;
#X connect 138 0 141 0;
#X connect 139 0 142 0;
#X connect 140 0 138 0;
#X connect 140 0 144 2;
#X connect 141 0 139 0;
#X connect 141 0 142 1;
#X connect 142 0 109 1;
#X connect 145 0 89 1;
#X connect 147 0 148 0;
#X connect 148 0 158 0;
#X connect 149 0 155 0;
#X connect 151 0 150 0;
#X connect 151 0 150 1;
#X connect 152 0 151 1;
#X connect 153 0 159 0;
#X connect 154 0 159 0;
#X connect 156 0 157 0;
#X connect 157 0 153 0;
#X connect 158 0 149 0;
#X connect 159 0 151 0;
#X connect 161 0 15 0;
#X connect 161 0 144 0;
