#N canvas 0 0 1362 685 10;
#X obj 241 121 hidin;
#X msg 295 28 start;
#X obj 255 210 print;
#X obj 202 29 bng 15 250 50 0 empty empty empty 17 7 0 10 -262144 -1
-1;
#X floatatom 206 371 5 0 0 0 - - -;
#X floatatom 242 304 3 0 0 0 - - -;
#X floatatom 271 304 3 0 0 0 - - -;
#X floatatom 298 306 3 0 0 0 - - -;
#X floatatom 390 509 5 0 0 0 - - -;
#X floatatom 95 575 3 0 0 0 - - -;
#X floatatom 129 574 3 0 0 0 - - -;
#X msg 296 58 stop;
#X floatatom 75 196 5 0 0 0 - - -;
#X floatatom 485 60 5 0 0 0 - - -;
#X obj 442 530 bng 15 250 50 0 empty empty empty 17 7 0 10 -262144
-1 -1;
#X obj 442 554 openpanel;
#X obj 439 618 soundfiler;
#X obj 444 893 dac~;
#X obj 448 862 *~;
#X obj 487 863 hsl 128 15 0 1 0 0 empty empty empty -2 -8 0 10 -262144
-1 -1 0 1;
#X msg 135 500 stop;
#N canvas 0 0 450 300 (subpatch) 0;
#X array verde 48697 float 2;
#X coords 0 1 48697 -1 50 44 1 0 0;
#X restore 1417 35 graph;
#N canvas 0 0 450 300 (subpatch) 0;
#X array rojo 49477 float 2;
#X coords 0 1 49477 -1 50 44 1 0 0;
#X restore 1422 124 graph;
#X floatatom 438 646 15 0 0 0 - - -;
#X obj 450 674 expr 44100 / $f1;
#X floatatom 451 705 15 0 0 0 - - -;
#X obj 451 765 phasor~;
#X obj 452 737 *~ 1;
#X obj 451 797 *~;
#X obj 396 647 bng 15 250 50 0 empty empty empty 17 7 0 10 -262144
-1 -1;
#X obj 488 117 b;
#X obj 84 39 pddp/dsp;
#X text 413 479 canciones boton 1;
#N canvas 0 0 1362 685 songs 0;
#X floatatom 115 138 5 0 0 0 - - -;
#X obj 113 76 select 1;
#X obj 109 29 inlet;
#X obj 56 282 outlet;
#X obj 107 312 outlet;
#X obj 150 349 outlet;
#X obj 202 353 outlet;
#X obj 40 64 inlet;
#X msg 136 231 read -resize dog3.wav verde;
#X msg 157 261 read -resize mtls1.wav verde;
#X msg 114 200 read -resize m10.wav verde;
#X msg 193 289 read -resize sp2.wav verde;
#X obj 113 107 counter 3;
#X obj 117 173 select 0 1 2 3;
#X connect 0 0 13 0;
#X connect 1 0 12 0;
#X connect 2 0 1 0;
#X connect 7 0 0 0;
#X connect 8 0 4 0;
#X connect 9 0 5 0;
#X connect 10 0 3 0;
#X connect 11 0 6 0;
#X connect 12 0 0 0;
#X connect 13 0 10 0;
#X connect 13 1 8 0;
#X connect 13 2 9 0;
#X connect 13 3 11 0;
#X restore 312 575 pd songs green;
#X obj 210 340 select 0 1;
#X obj 424 812 bng 15 250 50 0 empty empty empty 17 7 0 10 -262144
-1 -1;
#X floatatom 217 303 3 0 0 0 - - -;
#X floatatom 511 766 5 0 0 0 - - -;
#X obj 222 268 route 23 24 22 25 26;
#X msg 230 28 open 1;
#X obj 487 87 / 255;
#X obj 487 145 +;
#X obj 97 537 route 30 31;
#X obj 77 162 route 2;
#X msg 441 585 read -resize \$1 verde;
#X obj 451 829 tabread4~ verde;
#X text 489 3 palanca;
#X text 3 537 power/start;
#X floatatom 673 530 5 0 0 0 - - -;
#X obj 726 520 bng 15 250 50 0 empty empty empty 17 7 0 10 -262144
-1 -1;
#X obj 726 544 openpanel;
#X obj 723 608 soundfiler;
#X obj 718 906 dac~;
#X obj 721 871 *~;
#X obj 743 848 hsl 128 15 0 1 0 0 empty empty empty -2 -8 0 10 -262144
-1 -1 0 1;
#X floatatom 724 633 15 0 0 0 - - -;
#X obj 733 665 expr 44100 / $f1;
#X floatatom 719 699 15 0 0 0 - - -;
#X obj 721 758 phasor~;
#X obj 721 730 *~ 1;
#X obj 721 787 *~;
#X obj 693 629 bng 15 250 50 0 empty empty empty 17 7 0 10 -262144
-1 -1;
#X obj 692 804 bng 15 250 50 0 empty empty empty 17 7 0 10 -262144
-1 -1;
#X floatatom 787 761 5 0 0 0 - - -;
#X text 709 467 canciones boton 2;
#X msg 725 575 read -resize \$1 rojo;
#X obj 720 821 tabread4~ rojo;
#N canvas 475 188 593 415 songs 0;
#X floatatom 115 138 5 0 0 0 - - -;
#X obj 109 29 inlet;
#X obj 56 282 outlet;
#X obj 107 312 outlet;
#X obj 150 349 outlet;
#X obj 202 353 outlet;
#X obj 40 64 inlet;
#X msg 193 289 read -resize mets2.wav rojo;
#X obj 113 76 select 1;
#X msg 114 200 read -resize m1.wav rojo;
#X msg 136 231 read -resize ff1.wav rojo;
#X msg 157 261 read -resize bub4.wav rojo;
#X obj 113 107 counter 3;
#X obj 117 173 select 0 1 2 3;
#X connect 0 0 13 0;
#X connect 1 0 8 0;
#X connect 6 0 0 0;
#X connect 7 0 5 0;
#X connect 8 0 12 0;
#X connect 9 0 2 0;
#X connect 10 0 3 0;
#X connect 11 0 4 0;
#X connect 12 0 0 0;
#X connect 13 0 9 0;
#X connect 13 1 10 0;
#X connect 13 2 11 0;
#X connect 13 3 7 0;
#X restore 607 565 pd songs red;
#X floatatom 969 517 5 0 0 0 - - -;
#X obj 1034 529 bng 15 250 50 0 empty empty empty 17 7 0 10 -262144
-1 -1;
#X obj 1034 553 openpanel;
#X obj 1031 617 soundfiler;
#X obj 1028 985 dac~;
#X obj 1028 935 *~;
#X obj 1060 907 hsl 128 15 0 1 0 0 empty empty empty -2 -8 0 10 -262144
-1 -1 0 1;
#X floatatom 1034 661 15 0 0 0 - - -;
#X obj 1046 705 expr 44100 / $f1;
#X floatatom 1028 745 15 0 0 0 - - -;
#X obj 1028 806 phasor~;
#X obj 1028 774 *~ 1;
#X obj 1027 841 *~;
#X obj 988 646 bng 15 250 50 0 empty empty empty 17 7 0 10 -262144
-1 -1;
#X obj 972 839 bng 15 250 50 0 empty empty empty 17 7 0 10 -262144
-1 -1;
#X floatatom 1105 808 5 0 0 0 - - -;
#X msg 1033 584 read -resize \$1 amarillo;
#X obj 1026 872 tabread4~ amarillo;
#N canvas 590 137 593 415 songs 0;
#X floatatom 115 138 5 0 0 0 - - -;
#X obj 113 76 select 1;
#X obj 109 29 inlet;
#X obj 56 282 outlet;
#X obj 107 312 outlet;
#X obj 150 349 outlet;
#X obj 202 353 outlet;
#X obj 40 64 inlet;
#X msg 193 289 read -resize bub4.wav amarillo;
#X msg 136 231 read -resize cup2.wav amarillo;
#X msg 114 200 read -resize tet.wav amarillo;
#X msg 157 261 read -resize ang1.wav amarillo;
#X obj 117 173 select 0 1 2 3;
#X obj 113 107 counter;
#X connect 0 0 12 0;
#X connect 1 0 13 0;
#X connect 2 0 1 0;
#X connect 7 0 0 0;
#X connect 8 0 6 0;
#X connect 9 0 4 0;
#X connect 10 0 3 0;
#X connect 11 0 5 0;
#X connect 12 0 10 0;
#X connect 12 1 9 0;
#X connect 12 2 11 0;
#X connect 12 3 8 0;
#X connect 13 0 0 0;
#X restore 910 545 pd songs yellow;
#X text 1015 490 canciones boton 3;
#X floatatom 1140 44 5 0 0 0 - - -;
#X obj 1205 56 bng 15 250 50 0 empty empty empty 17 7 0 10 -262144
-1 -1;
#X obj 1205 80 openpanel;
#X obj 1202 144 soundfiler;
#X obj 1199 512 dac~;
#X obj 1199 462 *~;
#X obj 1231 434 hsl 128 15 0 1 0 0 empty empty empty -2 -8 0 10 -262144
-1 -1 0 1;
#X floatatom 1205 188 15 0 0 0 - - -;
#X obj 1217 232 expr 44100 / $f1;
#X floatatom 1199 272 15 0 0 0 - - -;
#X obj 1199 333 phasor~;
#X obj 1199 301 *~ 1;
#X obj 1198 368 *~;
#X obj 1159 173 bng 15 250 50 0 empty empty empty 17 7 0 10 -262144
-1 -1;
#X obj 1143 366 bng 15 250 50 0 empty empty empty 17 7 0 10 -262144
-1 -1;
#X floatatom 1276 335 5 0 0 0 - - -;
#X msg 1204 111 read -resize \$1 azul;
#X obj 1197 399 tabread4~ azul;
#N canvas 557 224 593 415 songs 0;
#X floatatom 115 138 5 0 0 0 - - -;
#X obj 113 76 select 1;
#X obj 109 29 inlet;
#X obj 56 282 outlet;
#X obj 107 312 outlet;
#X obj 150 349 outlet;
#X obj 202 353 outlet;
#X obj 40 64 inlet;
#X msg 193 289 read -resize m1.wav azul;
#X msg 114 200 read -resize m7.wav azul;
#X msg 136 231 read -resize m15.wav azul;
#X msg 157 261 read -resize bub1.wav azul;
#X obj 113 107 counter 3;
#X obj 117 173 select 0 1 2 3;
#X connect 0 0 13 0;
#X connect 1 0 12 0;
#X connect 2 0 1 0;
#X connect 7 0 0 0;
#X connect 8 0 6 0;
#X connect 9 0 3 0;
#X connect 10 0 4 0;
#X connect 11 0 5 0;
#X connect 12 0 0 0;
#X connect 13 0 9 0;
#X connect 13 1 10 0;
#X connect 13 2 11 0;
#X connect 13 3 8 0;
#X restore 1118 84 pd songs blue;
#X text 1137 12 canciones boton 4;
#N canvas 0 0 450 300 (subpatch) 0;
#X array amarillo 285696 float 2;
#X coords 0 1 285696 -1 50 44 1 0 0;
#X restore 1424 219 graph;
#N canvas 0 0 450 300 (subpatch) 0;
#X array azul 380160 float 2;
#X coords 0 1 380160 -1 50 44 1 0 0;
#X restore 1428 300 graph;
#X floatatom 254 411 5 0 0 0 - - -;
#X msg 711 299 stop;
#X obj 254 382 select 0 1;
#X floatatom 578 65 5 0 0 0 - - -;
#X obj 580 120 b;
#X obj 576 34 route 3;
#X obj 580 92 / 255;
#X obj 579 150 +;
#X floatatom 298 448 5 0 0 0 - - -;
#X obj 297 420 select 0 1;
#X floatatom 692 68 5 0 0 0 - - -;
#X obj 694 123 b;
#X obj 690 37 route 3;
#X obj 694 95 / 255;
#X floatatom 345 377 5 0 0 0 - - -;
#X obj 345 350 select 0 1;
#X floatatom 830 56 5 0 0 0 - - -;
#X obj 832 108 b;
#X obj 828 25 route 3;
#X obj 832 83 / 255;
#X obj 696 150 -;
#X obj 483 29 route 3;
#X text 241 246 Botones principales;
#X obj 832 137 -;
#X text 575 13;
#X text 689 16;
#X text 827 4;
#X connect 0 0 2 0;
#X connect 0 0 38 0;
#X connect 0 0 42 0;
#X connect 0 0 43 0;
#X connect 0 0 115 0;
#X connect 0 0 122 0;
#X connect 0 0 128 0;
#X connect 0 0 131 0;
#X connect 0 1 2 0;
#X connect 1 0 0 0;
#X connect 3 0 0 0;
#X connect 4 0 37 0;
#X connect 4 0 44 0;
#X connect 5 0 117 0;
#X connect 6 0 130 0;
#X connect 7 0 133 0;
#X connect 8 0 33 1;
#X connect 11 0 0 0;
#X connect 12 0 40 0;
#X connect 12 0 116 0;
#X connect 12 0 123 0;
#X connect 12 0 129 0;
#X connect 13 0 40 0;
#X connect 14 0 15 0;
#X connect 15 0 44 0;
#X connect 16 0 23 0;
#X connect 18 0 17 0;
#X connect 18 0 17 1;
#X connect 19 0 18 1;
#X connect 23 0 24 0;
#X connect 23 0 28 1;
#X connect 24 0 25 0;
#X connect 25 0 27 0;
#X connect 26 0 28 0;
#X connect 27 0 26 0;
#X connect 28 0 45 0;
#X connect 29 0 25 0;
#X connect 29 0 23 0;
#X connect 30 0 41 0;
#X connect 33 0 16 0;
#X connect 33 1 16 0;
#X connect 33 2 16 0;
#X connect 33 3 16 0;
#X connect 34 0 4 0;
#X connect 34 1 33 0;
#X connect 35 0 45 0;
#X connect 36 0 41 0;
#X connect 37 0 26 1;
#X connect 37 0 13 0;
#X connect 38 0 34 0;
#X connect 38 0 36 0;
#X connect 38 1 5 0;
#X connect 38 1 112 0;
#X connect 38 2 6 0;
#X connect 38 2 119 0;
#X connect 38 3 7 0;
#X connect 38 3 125 0;
#X connect 38 4 8 0;
#X connect 38 4 48 0;
#X connect 38 4 68 0;
#X connect 38 4 88 0;
#X connect 39 0 0 0;
#X connect 40 0 30 0;
#X connect 40 0 41 1;
#X connect 41 0 27 1;
#X connect 42 0 9 0;
#X connect 42 1 10 0;
#X connect 42 1 20 0;
#X connect 42 1 111 0;
#X connect 43 0 12 0;
#X connect 44 0 16 0;
#X connect 45 0 18 0;
#X connect 48 0 67 1;
#X connect 49 0 50 0;
#X connect 50 0 65 0;
#X connect 51 0 55 0;
#X connect 53 0 52 0;
#X connect 53 0 52 1;
#X connect 54 0 53 1;
#X connect 55 0 56 0;
#X connect 55 0 60 1;
#X connect 56 0 57 0;
#X connect 57 0 59 0;
#X connect 58 0 60 0;
#X connect 59 0 58 0;
#X connect 60 0 66 0;
#X connect 61 0 57 0;
#X connect 61 0 55 0;
#X connect 62 0 66 0;
#X connect 63 0 58 1;
#X connect 63 0 113 0;
#X connect 65 0 51 0;
#X connect 66 0 53 0;
#X connect 67 0 51 0;
#X connect 67 1 51 0;
#X connect 67 2 51 0;
#X connect 67 3 51 0;
#X connect 68 0 86 1;
#X connect 69 0 70 0;
#X connect 70 0 84 0;
#X connect 71 0 75 0;
#X connect 73 0 72 0;
#X connect 73 0 72 1;
#X connect 74 0 73 1;
#X connect 75 0 76 0;
#X connect 75 0 80 1;
#X connect 76 0 77 0;
#X connect 77 0 79 0;
#X connect 78 0 80 0;
#X connect 79 0 78 0;
#X connect 80 0 85 0;
#X connect 81 0 77 0;
#X connect 81 0 75 0;
#X connect 82 0 85 0;
#X connect 83 0 78 1;
#X connect 83 0 120 0;
#X connect 84 0 71 0;
#X connect 85 0 73 0;
#X connect 86 0 71 0;
#X connect 86 1 71 0;
#X connect 86 2 71 0;
#X connect 86 3 71 0;
#X connect 88 0 106 1;
#X connect 89 0 90 0;
#X connect 90 0 104 0;
#X connect 91 0 95 0;
#X connect 93 0 92 0;
#X connect 93 0 92 1;
#X connect 94 0 93 1;
#X connect 95 0 96 0;
#X connect 95 0 100 1;
#X connect 96 0 97 0;
#X connect 97 0 99 0;
#X connect 98 0 100 0;
#X connect 99 0 98 0;
#X connect 100 0 105 0;
#X connect 101 0 97 0;
#X connect 101 0 95 0;
#X connect 102 0 105 0;
#X connect 103 0 98 1;
#X connect 103 0 126 0;
#X connect 104 0 91 0;
#X connect 105 0 93 0;
#X connect 106 0 91 0;
#X connect 106 1 91 0;
#X connect 106 2 91 0;
#X connect 106 3 91 0;
#X connect 110 0 65 0;
#X connect 110 0 63 0;
#X connect 111 0 50 0;
#X connect 111 0 65 0;
#X connect 111 0 15 0;
#X connect 111 0 44 0;
#X connect 111 0 84 0;
#X connect 111 0 70 0;
#X connect 111 0 90 0;
#X connect 111 0 104 0;
#X connect 112 0 110 0;
#X connect 112 1 67 0;
#X connect 113 0 116 0;
#X connect 114 0 117 0;
#X connect 115 0 113 0;
#X connect 116 0 114 0;
#X connect 116 0 117 1;
#X connect 117 0 59 1;
#X connect 118 0 83 0;
#X connect 118 0 84 0;
#X connect 119 0 118 0;
#X connect 119 1 86 0;
#X connect 120 0 123 0;
#X connect 121 0 130 0;
#X connect 122 0 120 0;
#X connect 123 0 121 0;
#X connect 123 0 130 1;
#X connect 124 0 103 0;
#X connect 124 0 104 0;
#X connect 125 0 124 0;
#X connect 125 1 106 0;
#X connect 126 0 129 0;
#X connect 127 0 133 0;
#X connect 128 0 126 0;
#X connect 129 0 127 0;
#X connect 129 0 133 1;
#X connect 130 0 79 1;
#X connect 131 0 13 0;
#X connect 133 0 99 1;
